<svg xmlns="http://www.w3.org/2000/svg" width="93.754" height="45.718" viewBox="0 0 93.754 45.718">
  <g id="Group_69" data-name="Group 69" transform="translate(117.88 -405.99)">
    <path id="Path_8" data-name="Path 8" d="M-28.493,451.708h-72.053a4.368,4.368,0,0,1-3.57-1.856l-12.971-18.5a4.36,4.36,0,0,1,0-5.01l12.971-18.493a4.361,4.361,0,0,1,3.57-1.861h72.053a4.367,4.367,0,0,1,4.367,4.364v36.991A4.364,4.364,0,0,1-28.493,451.708Z" fill="#ffdb62"/>
    <g id="Group_34" data-name="Group 34" transform="translate(-100.598 416.284)">
      <path id="Path_9" data-name="Path 9" d="M-105.153,408.585c5,0,7.688,2.856,7.688,6.422a5.373,5.373,0,0,1-3.57,5.323v.127a5.532,5.532,0,0,1,3.995,5.712c0,3.987-2.856,6.843-7.819,6.843-4.935,0-8.5-2.337-8.664-7.688h5.383a2.834,2.834,0,0,0,3.082,3.082,2.47,2.47,0,0,0,2.662-2.662c0-2.106-1.265-2.951-4.153-2.951h-1.035v-4.51h1.035c1.88,0,3.7-.452,3.7-2.594a2.241,2.241,0,0,0-2.432-2.463,2.463,2.463,0,0,0-2.531,2.594h-5.419C-113.035,411.148-109.989,408.585-105.153,408.585Z" transform="translate(113.523 -408.585)"/>
      <path id="Path_10" data-name="Path 10" d="M-99.6,408.6c6.748,0,9.116,5.058,9.116,12,0,7.009-2.368,12.071-9.116,12.071s-9.116-5.062-9.116-12.071C-108.717,413.66-106.349,408.6-99.6,408.6Zm0,5.189c-3.277,0-3.665,3.177-3.665,6.811,0,3.764.389,6.878,3.665,6.878s3.665-3.114,3.665-6.878C-95.936,416.968-96.325,413.791-99.6,413.791Z" transform="translate(127.781 -408.535)"/>
    </g>
    <g id="Group_35" data-name="Group 35" transform="translate(-58.399 420.715)">
      <path id="Path_11" data-name="Path 11" d="M-100.763,409.7a1.98,1.98,0,0,1,2.114,2.146,1.98,1.98,0,0,1-2.114,2.15,1.987,1.987,0,0,1-2.122-2.15A1.988,1.988,0,0,1-100.763,409.7Zm-.619,2.146c0,.6.226.869.607.869s.623-.266.623-.869-.238-.877-.623-.877S-101.382,411.241-101.382,411.848Zm5.034-2.007h2.094l-4.891,8.949h-2.1Zm1.626,4.792a1.975,1.975,0,0,1,2.11,2.15,1.978,1.978,0,0,1-2.11,2.146,1.976,1.976,0,0,1-2.11-2.146A1.973,1.973,0,0,1-94.721,414.633Zm-.623,2.15c0,.6.226.865.607.865s.627-.266.627-.865-.242-.877-.627-.877S-95.344,416.184-95.344,416.783Z" transform="translate(102.885 -409.702)"/>
    </g>
    <g id="Group_36" data-name="Group 36" transform="translate(-58.371 431.469)">
      <path id="Path_12" data-name="Path 12" d="M-98.288,421.553a4.491,4.491,0,0,1-4.59-4.578,4.478,4.478,0,0,1,4.59-4.562,4.45,4.45,0,0,1,4.562,4.562A4.468,4.468,0,0,1-98.288,421.553Zm0-1.983a2.335,2.335,0,0,0,2.352-2.594,2.322,2.322,0,0,0-2.352-2.594,2.317,2.317,0,0,0-2.364,2.594A2.329,2.329,0,0,0-98.288,419.569Z" transform="translate(102.878 -412.413)"/>
      <path id="Path_13" data-name="Path 13" d="M-100.329,412.445h5.807v1.741h-3.634v1.88h2.717v1.69h-2.717v3.61h-2.174Z" transform="translate(110.44 -412.318)"/>
      <path id="Path_14" data-name="Path 14" d="M-98.64,412.445h5.811v1.741h-3.638v1.88h2.721v1.69h-2.721v3.61H-98.64Z" transform="translate(115.451 -412.318)"/>
    </g>
  </g>
</svg>
