<svg xmlns="http://www.w3.org/2000/svg" width="164.356" height="90.416" viewBox="0 0 164.356 90.416">
  <g id="Group_55" data-name="Group 55" transform="translate(-823.909 -1633.509)">
    <g id="Group_54" data-name="Group 54" transform="translate(823.909 1633.509)">
      <path id="Path_17" data-name="Path 17" d="M978.737,1649.634H948.385l5.02-13.795.848-2.33h-33.8l-.416,1.142-5.453,14.983h-9.431l5.02-13.795.848-2.33h-33.8l-.416,1.142-5.453,14.983h-37.92a9.538,9.538,0,0,0-9.527,9.528v25.589a9.538,9.538,0,0,0,9.527,9.528H863.21l-5.021,13.795-.848,2.33h33.8l.417-1.143,5.453-14.982h8.852l-5.02,13.795-.848,2.33h33.8l.416-1.143,5.453-14.982h39.078a9.538,9.538,0,0,0,9.528-9.528v-25.589A9.538,9.538,0,0,0,978.737,1649.634Z" transform="translate(-823.909 -1633.509)" fill="#ffbf00"/>
      <g id="Group_51" data-name="Group 51" transform="translate(15.42 81.703)">
        <path id="Path_18" data-name="Path 18" d="M847.332,1746.651l-.426,2.158h-1.438l.435-2.22-1.6-4h1.439l1.11,2.772,2.23-2.772h1.483Z" transform="translate(-844.304 -1741.819)" fill="#fff"/>
        <path id="Path_19" data-name="Path 19" d="M852.47,1749.055a1.985,1.985,0,0,1-.844-.75,2.1,2.1,0,0,1-.3-1.124,2.736,2.736,0,0,1,.373-1.421,2.685,2.685,0,0,1,1.03-.995,3.012,3.012,0,0,1,1.483-.364,2.846,2.846,0,0,1,1.27.267,1.983,1.983,0,0,1,.839.751,2.1,2.1,0,0,1,.3,1.124,2.765,2.765,0,0,1-.369,1.421,2.642,2.642,0,0,1-1.031.995,3.031,3.031,0,0,1-1.487.364A2.856,2.856,0,0,1,852.47,1749.055Zm2.074-1.079a1.363,1.363,0,0,0,.5-.555,1.812,1.812,0,0,0,.178-.817,1.045,1.045,0,0,0-.284-.773,1.08,1.08,0,0,0-.8-.284,1.329,1.329,0,0,0-1.226.755,1.812,1.812,0,0,0-.178.817,1.036,1.036,0,0,0,.289.773,1.1,1.1,0,0,0,.8.284A1.331,1.331,0,0,0,854.544,1747.976Z" transform="translate(-846.018 -1742.26)" fill="#fff"/>
        <path id="Path_20" data-name="Path 20" d="M865.056,1744.495l-.95,4.778h-1.315l.1-.515a2.048,2.048,0,0,1-.71.439,2.422,2.422,0,0,1-.844.147,1.781,1.781,0,0,1-1.248-.426,1.544,1.544,0,0,1-.467-1.2,2.688,2.688,0,0,1,.063-.578l.524-2.647h1.385l-.506,2.558a1.648,1.648,0,0,0-.036.347q0,.745.8.746a1.249,1.249,0,0,0,.866-.307,1.626,1.626,0,0,0,.466-.919l.489-2.425Z" transform="translate(-848.04 -1742.283)" fill="#fff"/>
        <path id="Path_21" data-name="Path 21" d="M870.451,1744.552a3.2,3.2,0,0,1,1.035-.151l-.249,1.279q-.25-.018-.32-.018a1.538,1.538,0,0,0-1.009.312,1.619,1.619,0,0,0-.51.968l-.462,2.309h-1.385l.95-4.778h1.314l-.116.569A1.8,1.8,0,0,1,870.451,1744.552Z" transform="translate(-849.974 -1742.26)" fill="#fff"/>
        <path id="Path_22" data-name="Path 22" d="M879.085,1743.747l-.267,1.35h2.887l-.222,1.119h-2.9l-.284,1.439H881.7l-.24,1.155h-4.813l1.243-6.217h4.7l-.24,1.155Z" transform="translate(-852.192 -1741.819)" fill="#fff"/>
        <path id="Path_23" data-name="Path 23" d="M886.015,1742.1H887.4l-1.315,6.59H884.7Z" transform="translate(-854.158 -1741.699)" fill="#fff"/>
        <path id="Path_24" data-name="Path 24" d="M893.669,1747.234H890.01q.072.978,1.235.978a2.11,2.11,0,0,0,.7-.116,1.751,1.751,0,0,0,.581-.329l.578.915a2.743,2.743,0,0,1-.915.48,3.634,3.634,0,0,1-1.083.16,2.993,2.993,0,0,1-1.292-.262,1.933,1.933,0,0,1-.853-.751,2.12,2.12,0,0,1-.3-1.127,2.842,2.842,0,0,1,.359-1.426,2.581,2.581,0,0,1,1-.995,2.921,2.921,0,0,1,1.456-.36,2.643,2.643,0,0,1,1.2.258,1.873,1.873,0,0,1,.791.737,2.167,2.167,0,0,1,.28,1.111A3.764,3.764,0,0,1,893.669,1747.234Zm-3.082-1.532a1.417,1.417,0,0,0-.48.724h2.372a.932.932,0,0,0-.289-.724,1.116,1.116,0,0,0-.777-.261A1.309,1.309,0,0,0,890.587,1745.7Z" transform="translate(-855.123 -1742.26)" fill="#fff"/>
        <path id="Path_25" data-name="Path 25" d="M897.464,1749.055a1.979,1.979,0,0,1-.848-.75,2.1,2.1,0,0,1-.3-1.124,2.737,2.737,0,0,1,.374-1.421,2.669,2.669,0,0,1,1.039-.995,3.078,3.078,0,0,1,1.5-.364,2.638,2.638,0,0,1,1.319.315,1.989,1.989,0,0,1,.83.893l-1.173.586a1.088,1.088,0,0,0-1.065-.648,1.356,1.356,0,0,0-1.239.755,1.756,1.756,0,0,0-.182.809,1.043,1.043,0,0,0,.293.776,1.117,1.117,0,0,0,.817.289,1.31,1.31,0,0,0,1.172-.64l1.021.64a2.349,2.349,0,0,1-.946.844,3.156,3.156,0,0,1-2.615.036Z" transform="translate(-856.991 -1742.26)" fill="#fff"/>
        <path id="Path_26" data-name="Path 26" d="M905.46,1747.245a.836.836,0,0,0-.017.2q0,.462.506.462a1.091,1.091,0,0,0,.559-.169l.2.986a2.237,2.237,0,0,1-1.19.284,1.6,1.6,0,0,1-1.084-.355,1.23,1.23,0,0,1-.408-.978,2.335,2.335,0,0,1,.044-.417l.383-1.927h-.737l.213-1.065h.737l.231-1.164h1.385l-.231,1.164h1.19l-.213,1.065h-1.19Z" transform="translate(-858.797 -1741.943)" fill="#fff"/>
        <path id="Path_27" data-name="Path 27" d="M911.834,1744.552a3.19,3.19,0,0,1,1.034-.151l-.249,1.279q-.248-.018-.32-.018a1.536,1.536,0,0,0-1.008.312,1.619,1.619,0,0,0-.51.968l-.462,2.309h-1.386l.95-4.778H911.2l-.116.569A1.8,1.8,0,0,1,911.834,1744.552Z" transform="translate(-860.069 -1742.26)" fill="#fff"/>
        <path id="Path_28" data-name="Path 28" d="M915.444,1749.055a1.993,1.993,0,0,1-.844-.75,2.106,2.106,0,0,1-.3-1.124,2.736,2.736,0,0,1,.373-1.421,2.682,2.682,0,0,1,1.031-.995,3.008,3.008,0,0,1,1.483-.364,2.841,2.841,0,0,1,1.269.267,1.989,1.989,0,0,1,.84.751,2.1,2.1,0,0,1,.3,1.124,2.765,2.765,0,0,1-.369,1.421,2.646,2.646,0,0,1-1.03.995,3.032,3.032,0,0,1-1.488.364A2.855,2.855,0,0,1,915.444,1749.055Zm2.074-1.079a1.363,1.363,0,0,0,.5-.555,1.8,1.8,0,0,0,.178-.817,1.042,1.042,0,0,0-.284-.773,1.08,1.08,0,0,0-.8-.284,1.329,1.329,0,0,0-1.226.755,1.8,1.8,0,0,0-.178.817,1.033,1.033,0,0,0,.289.773,1.1,1.1,0,0,0,.8.284A1.33,1.33,0,0,0,917.518,1747.976Z" transform="translate(-861.378 -1742.26)" fill="#fff"/>
        <path id="Path_29" data-name="Path 29" d="M927.162,1744.823a1.534,1.534,0,0,1,.47,1.2,2.694,2.694,0,0,1-.062.578l-.533,2.646h-1.385l.515-2.558a1.441,1.441,0,0,0,.036-.328.75.75,0,0,0-.2-.569.856.856,0,0,0-.613-.2,1.291,1.291,0,0,0-.883.306,1.6,1.6,0,0,0-.476.919l-.479,2.425h-1.386l.95-4.778h1.315l-.107.516a2.241,2.241,0,0,1,1.572-.587A1.833,1.833,0,0,1,927.162,1744.823Z" transform="translate(-863.295 -1742.26)" fill="#fff"/>
        <path id="Path_30" data-name="Path 30" d="M931.522,1743.781H932.9l-.95,4.778h-1.377Zm.342-.874a.671.671,0,0,1-.226-.511.772.772,0,0,1,.253-.591.933.933,0,0,1,.662-.236.861.861,0,0,1,.591.2.633.633,0,0,1,.226.493.794.794,0,0,1-.258.617.945.945,0,0,1-.665.235A.828.828,0,0,1,931.864,1742.907Z" transform="translate(-865.347 -1741.57)" fill="#fff"/>
        <path id="Path_31" data-name="Path 31" d="M935.652,1749.055a1.982,1.982,0,0,1-.848-.75,2.1,2.1,0,0,1-.3-1.124,2.737,2.737,0,0,1,.373-1.421,2.671,2.671,0,0,1,1.04-.995,3.077,3.077,0,0,1,1.5-.364,2.638,2.638,0,0,1,1.319.315,1.989,1.989,0,0,1,.83.893l-1.173.586a1.088,1.088,0,0,0-1.065-.648,1.353,1.353,0,0,0-1.239.755,1.746,1.746,0,0,0-.182.809,1.04,1.04,0,0,0,.293.776,1.114,1.114,0,0,0,.817.289,1.31,1.31,0,0,0,1.173-.64l1.021.64a2.358,2.358,0,0,1-.946.844,3.157,3.157,0,0,1-2.616.036Z" transform="translate(-866.306 -1742.26)" fill="#fff"/>
        <path id="Path_32" data-name="Path 32" d="M942.092,1749.184a2.55,2.55,0,0,1-.866-.36l.533-1a2.692,2.692,0,0,0,.759.329,3.348,3.348,0,0,0,.9.124,1.582,1.582,0,0,0,.7-.12.372.372,0,0,0,.231-.342.27.27,0,0,0-.2-.257,4.116,4.116,0,0,0-.658-.169,6.224,6.224,0,0,1-.848-.214,1.413,1.413,0,0,1-.578-.377,1.011,1.011,0,0,1-.244-.715,1.409,1.409,0,0,1,.662-1.235,3.065,3.065,0,0,1,1.736-.444,4.366,4.366,0,0,1,.968.106,2.946,2.946,0,0,1,.8.294l-.5,1.012a2.625,2.625,0,0,0-1.412-.365,1.42,1.42,0,0,0-.689.134.389.389,0,0,0-.235.337.284.284,0,0,0,.2.271,4.262,4.262,0,0,0,.683.182,6.3,6.3,0,0,1,.83.208,1.364,1.364,0,0,1,.564.369.987.987,0,0,1,.24.7,1.389,1.389,0,0,1-.671,1.235,3.14,3.14,0,0,1-1.736.435A4.9,4.9,0,0,1,942.092,1749.184Z" transform="translate(-867.945 -1742.26)" fill="#fff"/>
        <path id="Path_33" data-name="Path 33" d="M952.541,1748.686a3.426,3.426,0,0,1-1.083-.5l.587-1.11a3.324,3.324,0,0,0,.959.479,3.6,3.6,0,0,0,1.093.169,1.911,1.911,0,0,0,.941-.2.591.591,0,0,0,.346-.532.458.458,0,0,0-.275-.422,4.684,4.684,0,0,0-.879-.315,9.1,9.1,0,0,1-.986-.342,1.8,1.8,0,0,1-.661-.493,1.3,1.3,0,0,1-.28-.87,1.834,1.834,0,0,1,.351-1.111,2.217,2.217,0,0,1,.995-.737,4.012,4.012,0,0,1,1.5-.258,4.941,4.941,0,0,1,1.19.138,3.134,3.134,0,0,1,.959.395l-.541,1.1a2.554,2.554,0,0,0-.782-.36,3.385,3.385,0,0,0-.906-.12,1.876,1.876,0,0,0-.968.214.629.629,0,0,0-.355.55.444.444,0,0,0,.151.343,1.141,1.141,0,0,0,.382.222q.231.084.649.2a7.4,7.4,0,0,1,.977.324,1.771,1.771,0,0,1,.652.479,1.229,1.229,0,0,1,.271.83,1.809,1.809,0,0,1-.355,1.115,2.283,2.283,0,0,1-1,.738,4.011,4.011,0,0,1-1.51.262A5.062,5.062,0,0,1,952.541,1748.686Z" transform="translate(-870.441 -1741.785)" fill="#fff"/>
        <path id="Path_34" data-name="Path 34" d="M965.432,1744.495l-.95,4.778h-1.314l.1-.515a2.046,2.046,0,0,1-.711.439,2.415,2.415,0,0,1-.843.147,1.781,1.781,0,0,1-1.248-.426,1.544,1.544,0,0,1-.467-1.2,2.638,2.638,0,0,1,.063-.578l.524-2.647h1.385l-.506,2.558a1.644,1.644,0,0,0-.036.347q0,.745.8.746a1.25,1.25,0,0,0,.866-.307,1.626,1.626,0,0,0,.466-.919l.488-2.425Z" transform="translate(-872.524 -1742.283)" fill="#fff"/>
        <path id="Path_35" data-name="Path 35" d="M972.482,1744.659a1.919,1.919,0,0,1,.755.742,2.248,2.248,0,0,1,.28,1.142,2.9,2.9,0,0,1-.351,1.425,2.578,2.578,0,0,1-2.3,1.354,1.689,1.689,0,0,1-1.545-.711l-.47,2.363h-1.386l1.3-6.5h1.314l-.1.471a2.093,2.093,0,0,1,1.465-.542A2.139,2.139,0,0,1,972.482,1744.659Zm-1.043,3.318a1.363,1.363,0,0,0,.5-.555,1.812,1.812,0,0,0,.178-.817,1.036,1.036,0,0,0-.289-.773,1.1,1.1,0,0,0-.8-.284,1.327,1.327,0,0,0-.719.2,1.349,1.349,0,0,0-.5.555,1.812,1.812,0,0,0-.178.817,1.046,1.046,0,0,0,.284.773,1.085,1.085,0,0,0,.8.284A1.346,1.346,0,0,0,971.438,1747.976Z" transform="translate(-874.346 -1742.26)" fill="#fff"/>
        <path id="Path_36" data-name="Path 36" d="M981.464,1747.234H977.8q.07.978,1.235.978a2.11,2.11,0,0,0,.7-.116,1.759,1.759,0,0,0,.581-.329l.578.915a2.75,2.75,0,0,1-.915.48,3.634,3.634,0,0,1-1.083.16,3,3,0,0,1-1.293-.262,1.935,1.935,0,0,1-.852-.751,2.12,2.12,0,0,1-.3-1.127,2.843,2.843,0,0,1,.36-1.426,2.587,2.587,0,0,1,1-.995,2.919,2.919,0,0,1,1.456-.36,2.647,2.647,0,0,1,1.2.258,1.867,1.867,0,0,1,.79.737,2.16,2.16,0,0,1,.28,1.111A3.759,3.759,0,0,1,981.464,1747.234Zm-3.082-1.532a1.417,1.417,0,0,0-.48.724h2.372a.932.932,0,0,0-.289-.724,1.117,1.117,0,0,0-.777-.261A1.309,1.309,0,0,0,978.382,1745.7Z" transform="translate(-876.538 -1742.26)" fill="#fff"/>
        <path id="Path_37" data-name="Path 37" d="M986.9,1744.552a3.2,3.2,0,0,1,1.035-.151l-.249,1.279q-.249-.018-.32-.018a1.535,1.535,0,0,0-1.008.312,1.62,1.62,0,0,0-.511.968l-.462,2.309H984l.95-4.778h1.314l-.115.569A1.8,1.8,0,0,1,986.9,1744.552Z" transform="translate(-878.378 -1742.26)" fill="#fff"/>
        <path id="Path_38" data-name="Path 38" d="M989.8,1749.184a2.547,2.547,0,0,1-.866-.36l.533-1a2.692,2.692,0,0,0,.759.329,3.353,3.353,0,0,0,.9.124,1.58,1.58,0,0,0,.7-.12.372.372,0,0,0,.231-.342.27.27,0,0,0-.2-.257,4.124,4.124,0,0,0-.657-.169,6.269,6.269,0,0,1-.848-.214,1.412,1.412,0,0,1-.578-.377,1.011,1.011,0,0,1-.243-.715,1.409,1.409,0,0,1,.662-1.235,3.065,3.065,0,0,1,1.736-.444,4.383,4.383,0,0,1,.969.106,2.94,2.94,0,0,1,.8.294l-.5,1.012a2.623,2.623,0,0,0-1.412-.365,1.417,1.417,0,0,0-.688.134.388.388,0,0,0-.236.337.284.284,0,0,0,.2.271,4.24,4.24,0,0,0,.683.182,6.238,6.238,0,0,1,.83.208,1.372,1.372,0,0,1,.565.369.99.99,0,0,1,.24.7,1.389,1.389,0,0,1-.671,1.235,3.144,3.144,0,0,1-1.737.435A4.887,4.887,0,0,1,989.8,1749.184Z" transform="translate(-879.581 -1742.26)" fill="#fff"/>
        <path id="Path_39" data-name="Path 39" d="M997.788,1747.245a.837.837,0,0,0-.017.2q0,.462.507.462a1.088,1.088,0,0,0,.559-.169l.2.986a2.24,2.24,0,0,1-1.191.284,1.6,1.6,0,0,1-1.083-.355,1.229,1.229,0,0,1-.408-.978,2.354,2.354,0,0,1,.045-.417l.382-1.927h-.737l.213-1.065H997l.231-1.164h1.386l-.231,1.164h1.191l-.214,1.065h-1.19Z" transform="translate(-881.317 -1741.943)" fill="#fff"/>
        <path id="Path_40" data-name="Path 40" d="M1002.323,1749.055a1.984,1.984,0,0,1-.844-.75,2.1,2.1,0,0,1-.3-1.124,2.737,2.737,0,0,1,.373-1.421,2.686,2.686,0,0,1,1.03-.995,3.012,3.012,0,0,1,1.484-.364,2.847,2.847,0,0,1,1.27.267,1.987,1.987,0,0,1,.839.751,2.1,2.1,0,0,1,.3,1.124,2.765,2.765,0,0,1-.369,1.421,2.645,2.645,0,0,1-1.03.995,3.036,3.036,0,0,1-1.488.364A2.856,2.856,0,0,1,1002.323,1749.055Zm2.074-1.079a1.363,1.363,0,0,0,.5-.555,1.812,1.812,0,0,0,.177-.817,1.042,1.042,0,0,0-.284-.773,1.077,1.077,0,0,0-.8-.284,1.329,1.329,0,0,0-1.226.755,1.8,1.8,0,0,0-.178.817,1.034,1.034,0,0,0,.289.773,1.1,1.1,0,0,0,.8.284A1.331,1.331,0,0,0,1004.4,1747.976Z" transform="translate(-882.569 -1742.26)" fill="#fff"/>
        <path id="Path_41" data-name="Path 41" d="M1011.94,1744.552a3.19,3.19,0,0,1,1.034-.151l-.249,1.279c-.166-.012-.273-.018-.32-.018a1.536,1.536,0,0,0-1.008.312,1.624,1.624,0,0,0-.511.968l-.461,2.309h-1.386l.95-4.778h1.315l-.116.569A1.8,1.8,0,0,1,1011.94,1744.552Z" transform="translate(-884.486 -1742.26)" fill="#fff"/>
        <path id="Path_42" data-name="Path 42" d="M1019.429,1747.234h-3.659q.071.978,1.235.978a2.105,2.105,0,0,0,.7-.116,1.754,1.754,0,0,0,.582-.329l.577.915a2.74,2.74,0,0,1-.914.48,3.639,3.639,0,0,1-1.084.16,3,3,0,0,1-1.292-.262,1.936,1.936,0,0,1-.852-.751,2.12,2.12,0,0,1-.3-1.127,2.843,2.843,0,0,1,.36-1.426,2.585,2.585,0,0,1,1-.995,2.924,2.924,0,0,1,1.457-.36,2.647,2.647,0,0,1,1.2.258,1.871,1.871,0,0,1,.79.737,2.161,2.161,0,0,1,.28,1.111A3.707,3.707,0,0,1,1019.429,1747.234Zm-3.082-1.532a1.42,1.42,0,0,0-.479.724h2.371a.93.93,0,0,0-.289-.724,1.115,1.115,0,0,0-.777-.261A1.312,1.312,0,0,0,1016.347,1745.7Z" transform="translate(-885.799 -1742.26)" fill="#fff"/>
      </g>
      <g id="Group_52" data-name="Group 52" transform="translate(4.708 20.833)">
        <path id="Path_43" data-name="Path 43" d="M979.56,1696.292H835.652a5.5,5.5,0,0,1-5.516-5.445v-24.34a5.5,5.5,0,0,1,5.516-5.444H979.56a5.5,5.5,0,0,1,5.516,5.444v24.34a5.5,5.5,0,0,1-5.516,5.445" transform="translate(-830.136 -1661.063)" fill="#a30011" fill-rule="evenodd"/>
      </g>
      <path id="Path_44" data-name="Path 44" d="M1022.582,1671.654h.411a.541.541,0,0,0,.375-.1l.1-.174-.035-.135-.137-.1a.823.823,0,0,0-.341-.036h-.377Zm-.274,1v-1.8h.652a1.559,1.559,0,0,1,.478.034.532.532,0,0,1,.275.173.467.467,0,0,1,.1.275.547.547,0,0,1-.169.348.516.516,0,0,1-.411.174.37.37,0,0,1,.2.067,2.861,2.861,0,0,0,.275.383l.206.343h-.379l-.135-.309a2.489,2.489,0,0,0-.377-.417.4.4,0,0,0-.24-.067h-.2v.794Zm.789-2.32a1.49,1.49,0,0,0-.755.176,1.679,1.679,0,0,0-.583.518,1.349,1.349,0,0,0-.2.693,1.261,1.261,0,0,0,.2.693,1.216,1.216,0,0,0,.583.52,1.734,1.734,0,0,0,.755.174,1.849,1.849,0,0,0,.752-.174,1.122,1.122,0,0,0,.548-.52,1.27,1.27,0,0,0,.206-.693,1.361,1.361,0,0,0-.206-.693,1.137,1.137,0,0,0-.548-.518,1.4,1.4,0,0,0-.752-.176m0-.275a1.981,1.981,0,0,1,.889.208,1.629,1.629,0,0,1,.685.59,1.653,1.653,0,0,1,.241.865,1.459,1.459,0,0,1-.241.83,1.7,1.7,0,0,1-.685.624,1.535,1.535,0,0,1-.889.21,1.732,1.732,0,0,1-.928-.21,1.969,1.969,0,0,1-.684-.624,1.809,1.809,0,0,1-.242-.83,2.084,2.084,0,0,1,.242-.865,1.879,1.879,0,0,1,.684-.59,2.259,2.259,0,0,1,.928-.208" transform="translate(-872.042 -1642.425)" fill="#fff" fill-rule="evenodd"/>
      <g id="Group_53" data-name="Group 53" transform="translate(9.992 26.427)">
        <path id="SVGID" d="M884.682,1670.438l-2.212,4.3,2.756.1-1.9,3.949h-7.53l1.98-3.982,2.639.032,2.058-4.4H870.552l-2.1,4.368h2.757l-6.056,12.99-2.64-.039-2.29,4.574H872.3l2.174-4.574H871.6l2.214-4.71,7.608.174-2.29,4.607h-2.641l-2.25,4.432,11.994.1,2.174-4.71-2.562.07,6.017-12.918,2.639-.038,2.018-4.33Zm20.574,11.327,3.572-4.5-.234,4.538Zm-.426-11.287-2.175,4.29,2.524.071-12.267,12.918H890.7l-2.174,4.574h11.607l2.018-4.4h-2.172l1.825-2.114,6.249.142.156,1.941h-2.641l-2.019,4.4,11.647.032,2.134-4.574-2.212.039-.233-17.358Zm37.344-.04-2.019,4.33,2.679.071-1.864,3.949h-7.493l1.787-3.982,2.6.032,2.1-4.4h-11.8l-2.02,4.368H928.7l-6.094,12.99h-2.6l-2.058,4.535h11.84l2.135-4.535-2.64-.039,2.174-4.672,7.531.064-2.25,4.678h-2.757l-2.019,4.432,11.725.1,2.251-4.536-2.562.033,5.978-13.055,2.6-.038,2.019-4.33Zm-86.217-.238a13.5,13.5,0,0,0-5.746,1.693c-3.727,2.051-6.717,6.341-5.2,9.04,1.2,2.392,4.62,1.939,6.6,3.255,2.639,1.668-2.446,5.2-4.115,3.364-.776-.832-.116-2.012.271-2.7l-6.251-.071-3.531,7.479,4.814.039.543-1.461c5.707,7.311,23.02-6.541,14.518-11.25a16.261,16.261,0,0,0-3.8-1.148c-2.6-.586-1.825-2.209-.622-3.079,1.2-.934,4.153-1.076,4.076,1.939h4.775l3.106-6.79h-4.581l-.971,1.63c-.544-1.309-1.862-1.9-3.493-1.939Zm109.547,0a13.489,13.489,0,0,0-5.744,1.693c-3.728,2.051-6.716,6.341-5.242,9.04,1.282,2.392,4.619,1.939,6.677,3.255,2.562,1.668-2.445,5.2-4.153,3.364-.777-.832-.155-2.012.31-2.7l-6.326-.071-3.495,7.479,4.851.039.544-1.461c5.668,7.311,23.02-6.541,14.48-11.25a16.07,16.07,0,0,0-3.843-1.148c-2.6-.586-1.786-2.209-.621-3.079,1.241-.934,4.231-1.076,4.154,1.939h4.774l3.066-6.783v-.007h-4.58l-.97,1.63c-.544-1.309-1.865-1.9-3.495-1.939Z" transform="translate(-837.334 -1668.885)" fill="#800b0f"/>
        <path id="Path_45" data-name="Path 45" d="M837.124,1690.555l3.492-7.516,6.3.07c-.445.728-1.1,1.868-.346,2.735,1.717,1.8,6.783-1.694,4.178-3.392-2.053-1.282-5.407-.867-6.67-3.257-1.479-2.7,1.5-6.961,5.234-9.006,3.836-2.112,8.493-2.562,9.623.21l.962-1.628h4.623l-3.119,6.788h-4.76c.1-3.011-2.878-2.875-4.145-1.939-1.131.866-1.986,2.526.615,3.081a17.292,17.292,0,0,1,3.837,1.144c8.526,4.677-8.8,18.527-14.453,11.29l-.581,1.455Zm32.5-21.854h11.988l-2.087,4.4-2.673-.038-1.952,3.951h7.5l1.884-3.913-2.672-.1,2.159-4.294h11.849l-2.054,4.328-2.57.032L885,1685.984l2.533-.07-2.19,4.743-11.951-.1,2.192-4.434h2.67l2.261-4.676-7.6-.1-2.227,4.711,2.878-.068-2.157,4.6-12.092.035,2.3-4.639,2.639.1,6.062-13.056-2.774.032Zm18.017,21.922,2.156-4.6,2.226.033,12.228-12.953-2.464-.1,2.157-4.225,10.066-.036.172,17.352,2.261-.034-2.09,4.571-11.713-.035,2.021-4.4h2.675l-.141-1.939-6.3-.14-1.812,2.114H901.3l-2.022,4.4Zm16.679-10.631,3.354.1.24-4.572Zm22.946-11.291h11.814l-2.055,4.4-2.672-.038-1.783,3.951h7.468l1.917-3.913-2.738-.069,2.053-4.328h11.85l-2.051,4.328-2.609.032-5.99,13.1,2.568-.036-2.193,4.535-11.748-.1,1.988-4.434h2.773l2.193-4.746-7.43-.034-2.262,4.711h2.7l-2.19,4.536-11.816.035,2.058-4.537h2.635l6.026-13.056-2.533.032Zm19.381,21.854,3.53-7.516,6.266.07c-.411.728-1.062,1.868-.31,2.735,1.679,1.8,6.778-1.694,4.147-3.392-2.023-1.282-5.411-.867-6.613-3.257-1.5-2.7,1.475-6.961,5.207-9.006,3.836-2.112,8.493-2.562,9.589.21l.959-1.628h4.624l-3.12,6.788h-4.76c.107-3.011-2.872-2.875-4.107-1.939-1.164.866-1.987,2.526.613,3.081a16.919,16.919,0,0,1,3.8,1.144c8.562,4.677-8.8,18.527-14.452,11.29l-.548,1.455Z" transform="translate(-837.124 -1668.461)" fill="#fff" fill-rule="evenodd"/>
      </g>
    </g>
  </g>
</svg>
